<mxfile host="app.diagrams.net" modified="2024-05-09T14:52:55.534Z" agent="Mozilla/5.0 (Macintosh; Intel Mac OS X 10_15_7) AppleWebKit/537.36 (KHTML, like Gecko) Chrome/124.0.0.0 Safari/537.36" version="24.3.1" etag="w2flxSNBP23V8wwAkcBr" type="github">
  <diagram name="Page-1" id="2x949VS9k3O70Apssoh3">
    <mxGraphModel>
      <root>
        <mxCell id="0" />
        <mxCell id="1" parent="0" />
      </root>
    </mxGraphModel>
  </diagram>
</mxfile>
